# xmcd CD database file
#
# Track frame offsets:
#	150
#	23529
#	40117
#	52270
#	71196
#	84578
#	105302
#	124605
#	142257
#	155308
#	167461
#	184082
#	212158
#
# Disc length: 2989 seconds
#
# Revision: 13
# Processed by: cddbd v1.5.2PL0 Copyright (c) Steve Scherf et al.
# Submitted via: CDex 1.51
#
DISCID=af0bab0d
DTITLE=Sick Swing Orchestra - Bolesno, bolesno
DYEAR=2004
DGENRE=Jazz
TTITLE0=Sick swing
TTITLE1=Tvrdo meko
TTITLE2=Uzmi sve
TTITLE3=Ovaj dan se ne nudim
TTITLE4=Aæi æi karabi
TTITLE5=Oèi èornje
TTITLE6=Zrno svjetlosti
TTITLE7=Baltazar
TTITLE8=Foggy night
TTITLE9=Sweet sue
TTITLE10=Fly me to the moon
TTITLE11=St. Louis blues
TTITLE12=Deseterac o Sick Swingu
EXTD=YEAR: 2004
EXTT0=
EXTT1=
EXTT2=
EXTT3=
EXTT4=
EXTT5=
EXTT6=
EXTT7=
EXTT8=
EXTT9=
EXTT10=
EXTT11=
EXTT12=
PLAYORDER=
